<svg width="39" height="52" viewBox="0 0 39 52" fill="none" xmlns="http://www.w3.org/2000/svg">
<rect y="39.6191" width="38.381" height="3.71429" rx="1.85714" fill="#FFCAA4"/>
<rect y="48.2852" width="38.381" height="3.71429" rx="1.85714" fill="#FFCAA4"/>
<path d="M16.1262 9.08145C16.1527 9.24121 16.0721 9.37383 15.8014 9.50749C15.2528 9.2919 14.6593 9.20987 14.0715 9.26836C13.3955 9.32162 12.8277 9.53464 12.9041 9.98678C13.0102 10.4389 13.6608 10.7052 14.8229 10.5987C17.6608 10.3596 17.6343 8.47058 21.7967 8.09885C25.04 7.80647 26.8517 8.79011 27.0947 9.98678C27.2836 10.9172 26.5004 11.8215 24.1486 12.0084C22.0673 12.1942 20.8511 11.6356 20.7428 11.078C20.6887 10.7856 20.849 10.3596 21.8508 10.2531C21.957 10.7052 22.5269 11.1834 23.8779 11.0508C24.8575 10.9694 25.663 10.6185 25.5569 10.0964C25.4508 9.53777 24.4213 9.21928 22.7975 9.3519C19.5001 9.64428 18.6892 11.4267 15.8778 11.6659C13.8826 11.8465 12.2609 11.1291 12.0444 10.0651C11.9638 9.66621 11.9638 8.73581 14.0715 8.5489C15.153 8.46954 16.0179 8.65332 16.1262 9.0804V9.08145ZM5.58429 20.1981C4.70791 21.2613 4.26491 22.6072 4.34151 23.974C4.38628 24.5983 4.56616 25.206 4.86908 25.7564C5.17201 26.3067 5.591 26.787 6.09796 27.1651C6.59229 27.5561 7.1694 27.8332 7.78686 27.976C8.40433 28.1187 9.04645 28.1235 9.66605 27.99C10.2079 27.8578 10.7398 27.6889 11.258 27.4846C10.1871 27.4832 9.1518 27.1059 8.33837 26.4206C7.84133 26.0802 7.42138 25.6421 7.10501 25.134C6.78863 24.626 6.5827 24.0589 6.5002 23.4686C6.38044 22.9296 6.37654 22.3719 6.48876 21.8314C6.60098 21.2908 6.82684 20.7793 7.15183 20.3297C7.50533 19.8877 7.94639 19.521 8.44827 19.2517C8.95014 18.9825 9.50238 18.8163 10.0715 18.7634C11.2898 18.6795 12.4982 19.0285 13.4772 19.747C13.1985 19.4196 12.8909 19.117 12.5581 18.8427C12.0384 18.461 11.4387 18.1984 10.8026 18.0741C10.1665 17.9498 9.51022 17.967 8.88175 18.1243C7.56187 18.3963 6.38889 19.1344 5.58429 20.1992V20.1981ZM20.0732 14.054C17.1043 14.0778 14.1408 13.8013 11.2293 13.2291C8.82763 12.6443 7.55725 12.0063 7.55725 11.1824C7.55725 10.8368 7.71963 10.5444 8.20571 10.1988C6.69229 10.7835 5.88146 11.2628 5.88146 12.0073C5.96212 12.8323 7.31421 13.6561 10.0715 14.2942C13.3265 15.0097 16.6568 15.3399 19.9914 15.2778C23.3252 15.3442 26.655 15.0139 29.9082 14.2942C32.6676 13.6561 33.99 12.8051 33.99 12.0073C33.99 11.4226 33.3957 10.8587 32.3142 10.441C32.44 10.5174 32.5451 10.6227 32.6205 10.7478C32.6959 10.8729 32.7394 11.0142 32.7472 11.1594C32.7472 11.9844 31.5034 12.6485 28.9902 13.2071C26.0573 13.8034 23.0678 14.0873 20.0732 14.054ZM30.0207 16.3408C26.7614 17.0299 23.4343 17.3599 20.1008 17.3245C16.7407 17.3504 13.3875 17.0206 10.0991 16.3408C7.77482 15.756 6.53097 15.117 6.09902 14.4529C6.53763 17.2508 7.47158 19.9513 8.8584 22.4317C9.85815 23.9207 10.859 25.2239 11.8587 26.6336C12.2712 27.4162 12.5801 28.2475 12.7778 29.1073C13.4524 30.0111 14.4296 30.6516 15.5372 30.9159C16.9565 31.4186 18.464 31.6355 19.9702 31.5539H20.1326C21.6808 31.62 23.228 31.4037 24.6962 30.9159C25.7623 30.6115 26.7005 29.9773 27.3717 29.1073H27.4524C27.6211 28.2503 27.903 27.4187 28.2908 26.6336C29.2905 25.2239 30.2914 23.9187 31.2911 22.4317C32.6496 19.9394 33.5809 17.2435 34.0473 14.4529C33.5071 15.1974 32.2633 15.8396 30.0197 16.3419L30.0207 16.3408Z" fill="#FFCAA4"/>
</svg>
