<svg width="36" height="35" viewBox="0 0 36 35" fill="none" xmlns="http://www.w3.org/2000/svg">
<path d="M15.1262 9.08145C15.1527 9.24121 15.0721 9.37383 14.8014 9.50749C14.2528 9.2919 13.6593 9.20987 13.0715 9.26836C12.3955 9.32162 11.8277 9.53464 11.9041 9.98678C12.0102 10.4389 12.6608 10.7052 13.8229 10.5987C16.6608 10.3596 16.6343 8.47058 20.7967 8.09885C24.04 7.80647 25.8517 8.79011 26.0947 9.98678C26.2836 10.9172 25.5004 11.8215 23.1486 12.0084C21.0673 12.1942 19.8511 11.6356 19.7428 11.078C19.6887 10.7856 19.849 10.3596 20.8508 10.2531C20.957 10.7052 21.5269 11.1834 22.8779 11.0508C23.8575 10.9694 24.663 10.6185 24.5569 10.0964C24.4508 9.53777 23.4213 9.21928 21.7975 9.3519C18.5001 9.64428 17.6892 11.4267 14.8778 11.6659C12.8826 11.8465 11.2609 11.1291 11.0444 10.0651C10.9638 9.66621 10.9638 8.73581 13.0715 8.5489C14.153 8.46954 15.0179 8.65332 15.1262 9.0804V9.08145ZM4.58429 20.1981C3.70791 21.2613 3.26491 22.6072 3.34151 23.974C3.38628 24.5983 3.56616 25.206 3.86908 25.7564C4.17201 26.3067 4.591 26.787 5.09796 27.1651C5.59229 27.5561 6.1694 27.8332 6.78686 27.976C7.40433 28.1187 8.04645 28.1235 8.66605 27.99C9.20789 27.8578 9.7398 27.6889 10.258 27.4846C9.18708 27.4832 8.1518 27.1059 7.33837 26.4206C6.84133 26.0802 6.42138 25.6421 6.10501 25.134C5.78863 24.626 5.5827 24.0589 5.5002 23.4686C5.38044 22.9296 5.37654 22.3719 5.48876 21.8314C5.60098 21.2908 5.82684 20.7793 6.15183 20.3297C6.50533 19.8877 6.94639 19.521 7.44826 19.2517C7.95014 18.9825 8.50238 18.8163 9.07147 18.7634C10.2898 18.6795 11.4982 19.0285 12.4772 19.747C12.1985 19.4196 11.8909 19.117 11.5581 18.8427C11.0384 18.461 10.4387 18.1984 9.80257 18.0741C9.1665 17.9498 8.51022 17.967 7.88175 18.1243C6.56187 18.3963 5.38889 19.1344 4.58429 20.1992V20.1981ZM19.0732 14.054C16.1043 14.0778 13.1408 13.8013 10.2293 13.2291C7.82763 12.6443 6.55725 12.0063 6.55725 11.1824C6.55725 10.8368 6.71963 10.5444 7.20571 10.1988C5.69229 10.7835 4.88146 11.2628 4.88146 12.0073C4.96212 12.8323 6.31421 13.6561 9.07147 14.2942C12.3265 15.0097 15.6568 15.3399 18.9914 15.2778C22.3252 15.3442 25.655 15.0139 28.9082 14.2942C31.6676 13.6561 32.99 12.8051 32.99 12.0073C32.99 11.4226 32.3957 10.8587 31.3142 10.441C31.44 10.5174 31.5451 10.6227 31.6205 10.7478C31.6959 10.8729 31.7394 11.0142 31.7472 11.1594C31.7472 11.9844 30.5034 12.6485 27.9902 13.2071C25.0573 13.8034 22.0678 14.0873 19.0732 14.054ZM29.0207 16.3408C25.7614 17.0299 22.4343 17.3599 19.1008 17.3245C15.7407 17.3504 12.3875 17.0206 9.09906 16.3408C6.77482 15.756 5.53097 15.117 5.09902 14.4529C5.53763 17.2508 6.47158 19.9513 7.8584 22.4317C8.85815 23.9207 9.85896 25.2239 10.8587 26.6336C11.2712 27.4162 11.5801 28.2475 11.7778 29.1073C12.4524 30.0111 13.4296 30.6516 14.5372 30.9159C15.9565 31.4186 17.464 31.6355 18.9702 31.5539H19.1326C20.6808 31.62 22.228 31.4036 23.6962 30.9159C24.7623 30.6115 25.7005 29.9773 26.3717 29.1073H26.4524C26.6211 28.2503 26.903 27.4187 27.2908 26.6336C28.2905 25.2239 29.2914 23.9187 30.2911 22.4317C31.6496 19.9394 32.5809 17.2435 33.0473 14.4529C32.5071 15.1974 31.2632 15.8396 29.0197 16.3419L29.0207 16.3408Z" fill="#FFCAA4"/>
</svg>
